<?xml version="1.0" encoding="utf-8" ?>
<svg xmlns="http://www.w3.org/2000/svg" xmlns:xlink="http://www.w3.org/1999/xlink" width="1024" height="1024">
	<path fill="#172A3F" d="M0 0L1024 0L1024 1024L0 1024L0 0Z"/>
	<path fill="#66FDFC" d="M715.18 125.401C716.398 125.737 717.14 126.211 718.171 126.907C718.804 128.08 719.198 128.542 718.68 129.914C718.103 131.443 716.541 132.274 715.228 133.073C714.283 132.587 713.08 132.047 712.292 131.322C711.275 130.386 711.278 129.676 711.347 128.387C712.354 126.816 713.558 126.257 715.18 125.401Z"/>
	<path fill="#66FDFC" d="M494.996 630.073L495.308 630.716C492.781 640.043 481.334 664.433 476.225 672.862C470.611 669.926 464.997 667.027 459.789 663.405C455.325 660.056 452.26 656.284 449.613 651.413C457.67 648.297 465.757 645.239 473.547 641.489C480.831 637.983 487.843 633.847 494.996 630.073Z"/>
	<path fill="#66FDFC" d="M921.679 325.149C921.962 325.247 922.251 325.33 922.528 325.445C924.723 326.363 926.581 328.784 927.21 331.027C927.666 332.653 927.55 334.445 926.543 335.855C925.368 337.502 923.269 338.261 921.44 338.923C913.638 341.743 905.371 343.774 897.381 346.017Q874.478 352.508 851.396 358.328C841.873 360.755 832.032 364.401 822.339 365.813C821.221 365.647 820.293 365.404 819.324 364.787C817.871 363.862 816.887 361.871 816.515 360.245C816.144 358.626 816.351 356.865 817.297 355.473C818.396 353.855 819.893 353.254 821.672 352.651C827.931 350.528 834.57 349.146 840.973 347.49Q855.699 343.693 870.331 339.549L902.772 330.37C908.992 328.57 915.317 326.308 921.679 325.149Z"/>
	<path fill="#66FDFC" d="M827.894 427.538C846.895 427.241 865.934 427.748 884.941 427.741C901.83 427.734 918.843 427.144 935.716 427.647C938.679 427.735 941.991 427.796 944.088 430.226C945.325 431.659 945.716 433.548 945.454 435.395C945.084 438.001 943.842 439.413 941.815 440.962C920.571 441.673 899.121 441.172 877.856 441.123C861.24 441.086 844.436 441.637 827.842 440.976C827.018 440.283 826.254 439.574 825.548 438.758C824.276 437.287 823.23 435.312 823.548 433.295C823.972 430.6 825.795 429.062 827.894 427.538Z"/>
	<path fill="#66FDFC" d="M805.212 513.545C805.406 513.597 805.601 513.646 805.794 513.7C811.812 515.377 817.675 518.285 823.401 520.768L850.78 532.708L886.288 548.355C895.021 552.201 904.02 555.898 912.406 560.457C914.485 561.587 916.799 562.745 917.948 564.914C918.691 566.316 918.948 567.826 918.44 569.353C917.487 572.219 915.261 573.387 912.665 574.534C910.895 574.218 909.267 573.646 907.61 572.965C900.364 569.988 893.309 566.347 886.196 563.049Q869.737 555.481 853.135 548.23L823.273 535.255C816.574 532.354 809.625 529.585 803.242 526.038C801.529 525.086 799.985 524.108 799.358 522.124C798.847 520.51 799.01 519.048 799.768 517.563C801.046 515.059 802.627 514.371 805.212 513.545Z"/>
	<path fill="#66FDFC" d="M742.428 594.545C743.459 594.536 744.554 594.498 745.565 594.726C746.885 595.023 747.886 595.791 748.812 596.747C766.696 615.198 783.806 634.434 801.541 653.03C807.751 659.542 827.673 678.221 831.26 684.572C831.931 685.76 832.09 687.749 831.689 689.061C830.849 691.817 828.89 692.965 826.465 694.246C825.752 694.389 825.089 694.47 824.357 694.378C822.366 694.129 820.875 692.855 819.473 691.518C814.889 687.148 810.737 682.033 806.402 677.39L778.043 647.234L753.243 620.985C748.457 615.904 743.081 610.841 738.965 605.199C737.747 603.53 736.915 601.868 737.461 599.754C738.169 597.017 740.112 595.841 742.428 594.545Z"/>
	<path fill="#66FDFC" d="M409.981 554.386C411.252 555.678 411.326 572.219 411.449 574.865C412.212 591.159 415.565 608.335 420.743 623.8C422.609 629.371 425.092 634.702 427.106 640.22C414.986 641.569 406.746 635.708 396.603 630.044C387.171 624.604 376.653 620.311 367.651 614.273C371.602 608.05 376.82 602.396 381.073 596.307C390.781 582.405 399.985 568.073 409.981 554.386Z"/>
	<path fill="#66FDFC" d="M509.542 275.657C510.421 275.56 511.12 275.655 511.929 276.017C521.036 280.091 529.998 285.372 538.899 289.93L598.236 320.224L661.988 353.432C673.973 359.679 686.699 365.273 698.058 372.583C699.916 377.218 701.091 382.094 702.262 386.936C699.044 385.293 695.884 383.511 692.706 381.79Q594.515 328.916 494.718 279.139C499.56 277.575 504.542 276.559 509.542 275.657Z"/>
	<path fill="#66FDFC" d="M673.738 619.995C674.807 619.908 675.935 619.858 677.003 619.953C678.952 620.127 680.852 620.95 682.081 622.505C683.122 623.824 683.386 625.359 683.713 626.964C686.91 642.674 689.35 658.594 692.169 674.383Q701.222 723.244 709.566 772.231C711.415 782.662 723.918 846.674 722.991 852.648C722.641 854.91 720.806 855.977 719.084 857.195C718.354 857.351 718.313 857.377 717.487 857.459C714.408 857.765 712.557 856.038 710.373 854.135C709.042 849.472 708.538 844.415 707.731 839.624L703.281 813.468L688.525 729.129L675.846 656.897C674.426 649.049 670.172 632.579 670.219 625.366C670.235 622.899 672.081 621.521 673.738 619.995Z"/>
	<path fill="#66FDFC" d="M505.64 346.7C548.054 369.123 590.138 392.213 632.979 413.843C630.387 420.943 627.319 427.777 625.039 435.003C610.073 428.697 595.455 420.174 581.049 412.603L539.821 391.256C525.387 383.64 511.14 375.767 496.572 368.393Q501.202 357.587 505.64 346.7Z"/>
	<path fill="#66FDFC" d="M949.254 149.947Q949.929 150.043 950.6 150.161C953.11 150.612 955.812 151.713 957.143 154.05C957.795 155.193 957.91 156.474 957.59 157.732C957.006 160.028 955.422 161.422 953.629 162.842C944.131 170.368 933.991 177.297 924.221 184.481C901.699 201.043 878.999 217.526 856.761 234.463C837.826 248.884 818.47 262.747 799.577 277.21C789.041 285.276 778.569 293.388 767.866 301.235C762.795 304.954 757.755 308.923 752.358 312.154C751.335 312.142 750.253 312.13 749.247 311.935C747.522 311.601 745.262 309.975 744.502 308.374C743.881 307.067 743.825 305.976 744.275 304.6C745.084 302.129 748.401 299.529 750.419 297.918C762.387 288.363 774.999 279.51 787.227 270.281Q835.871 233.265 885.294 197.296L928.486 164.964C935.204 159.964 941.987 154.089 949.254 149.947Z"/>
	<path fill="#66FDFC" d="M535.012 313.222Q589.548 343.071 645.257 370.669C639.709 378.6 635.482 387.78 630.969 396.338L630.72 396.552C630.442 396.586 630.165 396.684 629.886 396.654C628.231 396.477 556.071 357.951 549.139 354.328Q535.469 347.343 521.728 340.499C526.524 331.641 530.545 322.265 535.012 313.222Z"/>
	<path fill="#66FDFC" d="M495.326 381.474C498.152 381.097 509.513 388.241 512.245 389.845C495.77 412.494 480.476 436.126 464.846 459.364C454.017 475.466 442.706 491.325 431.643 507.274C429.333 510.706 427.06 514.095 424.375 517.252C426.446 488.464 432.242 452.732 441.781 425.512C442.39 423.773 443.148 421.966 444.29 420.509C447.36 416.594 451.868 413.359 455.668 410.121C468.151 399.483 480.344 388.522 495.326 381.474Z"/>
	<path fill="#66FDFC" d="M355.737 621.685C356.414 621.954 357.068 622.21 357.712 622.552C368.275 628.165 378.611 634.427 389.082 640.237L447.275 672.042Q461.358 679.674 475.57 687.064C480.014 689.394 484.956 691.533 489.127 694.281C490.406 695.124 490.987 695.625 491.451 697.083C490.683 702.178 484.134 715.435 480.413 718.867C467.8 712.362 455.585 704.973 443.139 698.143L380.933 664.73C368.577 658.107 356.72 651.062 343.876 645.347C346.615 637.489 351.149 628.629 355.737 621.685Z"/>
	<path fill="#66FDFC" d="M591.397 431.189Q600.707 435.416 609.478 440.673C610.102 457.783 609.876 474.883 610.326 491.997C593.141 524.398 563.895 557.642 536.509 581.838L524.947 592.059C535.244 566.164 545.552 540.056 556.658 514.505C568.588 487.058 581.717 459.495 591.397 431.189Z"/>
	<path fill="#66FDFC" d="M713.769 89.1992C717.332 89.0196 720.765 89.1635 724.272 89.8628Q725.398 90.092 726.511 90.3764Q727.624 90.6608 728.721 90.9996Q729.819 91.3385 730.898 91.731Q731.978 92.1235 733.037 92.5688Q734.096 93.014 735.132 93.5108Q736.168 94.0076 737.178 94.5549Q738.188 95.1021 739.169 95.6985Q740.151 96.2948 741.103 96.9387Q742.054 97.5827 742.972 98.2727Q743.891 98.9628 744.774 99.6972Q745.657 100.432 746.503 101.209Q747.35 101.986 748.156 102.804Q748.963 103.621 749.729 104.478Q750.494 105.334 751.216 106.228Q751.939 107.121 752.616 108.048Q753.294 108.976 753.925 109.936C760.737 120.319 762.397 132.659 759.79 144.721C757.203 156.69 749.869 167.995 739.515 174.639C729.609 180.996 717.05 183.452 705.504 180.888C692.787 178.063 683.404 168.801 676.667 158.122C682.276 162.441 688.723 165.411 695.756 166.446C706.867 168.081 717.612 164.82 726.53 158.173C728.167 156.692 729.609 155.109 730.966 153.373C735.772 147.226 738.74 139.893 737.564 131.974C736.719 126.284 733.924 121.24 729.179 117.904C724.47 114.593 718.528 113.066 712.844 114.214C708.164 115.16 703.891 117.921 701.386 122.024Q701.048 122.57 700.767 123.147Q700.486 123.723 700.264 124.326Q700.042 124.928 699.881 125.549Q699.721 126.171 699.624 126.805Q699.527 127.439 699.494 128.08Q699.461 128.721 699.493 129.362Q699.524 130.003 699.62 130.638Q699.716 131.272 699.875 131.894C700.897 135.879 703.747 140.052 707.432 141.99C712.533 144.672 718.263 143.564 723.487 141.988Q722.619 143.395 721.702 144.77C718.159 150.051 712.158 153.576 705.935 154.656C699.15 155.834 692.564 153.745 687.107 149.709C680.994 145.188 676.567 138.568 675.641 130.915C674.532 121.75 678.216 111.826 684.012 104.803Q684.704 103.977 685.436 103.187Q686.167 102.396 686.937 101.641Q687.706 100.887 688.511 100.171Q689.316 99.4553 690.155 98.7795Q690.994 98.1037 691.865 97.4697Q692.736 96.8356 693.637 96.2447Q694.538 95.6539 695.466 95.1077Q696.395 94.5614 697.349 94.0611Q698.303 93.5608 699.28 93.1076Q700.258 92.6544 701.256 92.2494Q702.254 91.8443 703.271 91.4885Q704.288 91.1326 705.321 90.8268Q706.354 90.5209 707.401 90.2658Q708.447 90.0106 709.505 89.8068Q710.563 89.603 711.63 89.451Q712.696 89.299 713.769 89.1992Z"/>
	<path fill="#66FDFC" d="M341.549 656.402C350.69 658.993 370.339 671.769 379.796 676.891C401.149 688.456 422.656 699.762 443.875 711.566C452.223 716.211 460.99 720.425 468.974 725.669C456.629 728.084 444.04 729.122 431.705 731.645C408.337 735.956 383.699 743.244 369.306 763.385L360.908 760.038C372.014 730.153 363.631 701.644 350.761 673.801C348.091 668.025 344.19 662.829 341.763 656.941C341.69 656.762 341.621 656.581 341.549 656.402Z"/>
	<path fill="#66FDFC" d="M423.299 440.012L423.566 440.153C423.906 445.017 417.463 467.493 416.151 474.502C412.491 494.055 410.364 514.552 411.024 534.451C395.744 555.939 380.442 577.578 365.883 599.559C364.503 597.002 363.334 594.318 362.104 591.686C355.117 578.164 353.299 561.81 354.867 546.838C358.666 510.559 378.073 489.972 400.827 464.112C407.984 455.979 414.865 446.852 423.299 440.012Z"/>
	<path fill="#66FDFC" d="M476.641 323.543C479.669 323.218 482.552 323.272 485.345 324.62Q485.982 324.924 486.583 325.293Q487.184 325.662 487.744 326.092Q488.303 326.522 488.814 327.008Q489.325 327.494 489.783 328.031Q490.241 328.568 490.639 329.15Q491.038 329.732 491.374 330.352Q491.71 330.973 491.979 331.625Q492.248 332.277 492.447 332.954C493.598 336.819 492.974 341.275 490.909 344.726C489.008 347.902 486.236 350.029 482.855 351.452C475.506 354.544 466.73 355.249 458.898 356.726C452.321 357.967 445.813 359.582 439.243 360.869C432.818 362.128 426.342 363.12 419.963 364.6L365.24 454.632Q344.186 488.491 323.995 522.871C318.666 531.896 312.955 540.751 307.947 549.955C309.964 555.815 312.909 561.53 315.548 567.131Q321.527 579.876 327.652 592.551C330.65 598.712 334.255 605.074 336.018 611.725C337.212 616.227 336.41 631.134 334.066 634.988C331.982 638.416 328.515 640.062 324.758 640.992C321.196 641.117 317.891 640.452 315.021 638.234C312.284 636.12 310.702 632.908 310.446 629.484C310.165 625.718 311.422 621.766 313.988 618.969C317.309 615.347 320.589 614.994 325.197 614.915Q310.511 581.693 294.518 549.081C301.446 535.743 310.313 522.928 318.321 510.185Q332.861 486.656 347.118 462.956L386.631 397.633C393.594 386.122 400.332 374.375 407.819 363.198C408.991 361.448 410.785 358.309 412.565 357.134C420.238 352.066 457.126 345.49 468.066 343.308C467.034 339.59 466.143 336.287 467.391 332.456C468.876 327.895 472.646 325.636 476.641 323.543Z"/>
	<path fill="#66FDFC" d="M306.345 769.209C310.94 768.568 316.2 768.919 320.811 769.233Q325.067 769.512 329.299 770.038Q333.531 770.564 337.726 771.336Q341.92 772.108 346.063 773.123Q350.205 774.139 354.281 775.394Q358.357 776.649 362.353 778.14Q366.349 779.63 370.251 781.351Q374.153 783.072 377.948 785.018Q381.744 786.963 385.419 789.127C409.571 803.608 428.023 824.895 434.973 852.598C424.352 847.938 414.028 842.488 403.538 837.53Q358.586 817.048 311.822 801.133Q298.29 796.517 284.623 792.319C275.685 789.668 265.503 787.661 257.24 783.374C271.164 774.735 290.18 770.636 306.345 769.209Z"/>
	<path fill="#66FDFC" d="M654.808 413.549Q655.867 413.509 656.927 413.526C660.434 413.6 663.561 414.984 665.957 417.564C668.515 420.32 669.85 424.273 669.524 428.014C669.224 431.456 667.599 434.705 664.833 436.817C661.46 439.392 658.332 439.384 654.348 438.956L654.712 439.753C660.132 451.886 675.958 485.419 676.269 497.174C676.343 499.949 675.14 502.942 674.131 505.499Q645.124 579.209 612.017 651.171C605.472 665.175 598.54 682.967 590.961 695.79C589.29 698.616 587.244 701.847 584.428 703.608C571.884 711.457 550.859 712.922 536.25 714.545C531.062 715.121 525.113 715.16 520.302 717.281C520.356 717.666 520.423 718.216 520.53 718.57C520.614 718.848 520.75 719.109 520.852 719.381C521.995 722.423 521.542 727.123 520.079 730.021C517.992 734.157 514.087 736.199 509.899 737.634C507.304 737.663 505.018 737.688 502.594 736.576C499.467 735.142 496.872 732.502 495.69 729.25C494.271 725.348 494.997 720.907 496.918 717.305C498.389 714.548 500.712 711.973 503.562 710.62C508.448 708.301 514.483 707.396 519.734 706.163C539.473 701.527 560.142 699.122 579.492 693.174C584.919 680.112 590.891 667.405 596.688 654.511L634.002 571.593C644.713 547.28 653.468 522.054 664.798 498.045C660.793 483.765 654.468 470.016 648.654 456.396C646.178 450.594 643.388 444.725 641.552 438.684C639.857 433.106 639.879 428.552 642.788 423.328C645.585 418.306 649.337 415.183 654.808 413.549Z"/>
	<path fill="#66FDFC" d="M606.969 522.008C607.072 522.324 607.22 522.629 607.277 522.956C607.827 526.126 605.222 538.065 604.527 541.758C598.401 574.343 589.27 611.305 568.125 637.541C547.394 663.263 521.113 670.182 489.678 673.508L489.241 672.922C489.588 671.035 512.246 619.963 513 619.053C517.736 613.343 526.241 608.185 532.116 603.405Q544.164 593.507 555.413 582.709C567.22 571.525 578.581 559.278 588.613 546.479C594.903 538.453 600.571 529.943 606.969 522.008Z"/>
	<path fill="#66FDFC" d="M643.516 185.673C653.467 184.534 663.473 186.316 672.049 191.611C681.794 197.627 688.465 207.512 690.985 218.635Q691.229 219.692 691.42 220.76Q691.61 221.829 691.748 222.905Q691.886 223.981 691.97 225.063Q692.054 226.145 692.085 227.23Q692.115 228.314 692.092 229.399Q692.068 230.484 691.991 231.566Q691.914 232.649 691.783 233.726Q691.652 234.803 691.468 235.872Q691.284 236.942 691.047 238.001Q690.81 239.06 690.521 240.105Q690.232 241.151 689.891 242.181Q689.551 243.212 689.159 244.224Q688.768 245.236 688.327 246.227Q687.886 247.219 687.396 248.187Q686.906 249.155 686.369 250.098Q685.832 251.041 685.249 251.956C678.606 262.371 667.599 269.274 655.664 271.887C654.971 268.389 654.12 264.989 653.144 261.559C655.218 261.05 657.301 260.501 659.335 259.848C667.354 257.27 674.481 250.938 678.262 243.443C682.163 235.709 682.992 225.129 680.196 216.914C677.447 208.837 671.095 202.345 663.473 198.682Q662.719 198.323 661.948 198.002Q661.177 197.68 660.391 197.397Q659.605 197.115 658.806 196.871Q658.007 196.627 657.197 196.423Q656.386 196.219 655.567 196.056Q654.748 195.892 653.922 195.769Q653.096 195.646 652.264 195.564Q651.433 195.482 650.599 195.441Q649.764 195.4 648.929 195.4Q648.094 195.4 647.259 195.442Q646.425 195.484 645.594 195.566Q644.763 195.649 643.936 195.773Q643.11 195.896 642.291 196.061Q641.472 196.225 640.662 196.429Q639.852 196.634 639.054 196.878Q638.255 197.123 637.469 197.406Q636.728 197.681 636.002 197.992Q635.276 198.303 634.566 198.649Q633.856 198.995 633.164 199.376Q632.472 199.757 631.799 200.172Q631.127 200.586 630.476 201.034Q629.825 201.481 629.196 201.96Q628.568 202.439 627.964 202.948Q627.36 203.457 626.782 203.995Q626.204 204.534 625.653 205.1Q625.102 205.666 624.58 206.259Q624.058 206.852 623.566 207.469Q623.073 208.087 622.612 208.728Q622.15 209.37 621.721 210.033Q621.292 210.696 620.896 211.38Q620.5 212.063 620.138 212.765Q619.777 213.468 619.45 214.187C611.904 230.594 619.048 239.304 624.485 254.091L624.691 254.666C628.014 252.636 631.17 250.299 634.356 248.059C639.886 257.813 644.684 268.057 649.958 277.961C657.36 291.861 665.277 305.499 672.787 319.346C679.911 332.612 688.239 345.277 695.046 358.703C688.345 354.6 681.125 351.344 674.152 347.731L625.932 323.21L525.532 271.262C538.039 267.419 551.816 265.674 564.685 263.28C581.437 260.164 598.099 256.601 614.84 253.419Q614.04 252.402 613.306 251.335Q612.573 250.268 611.91 249.156Q611.247 248.044 610.658 246.891Q610.068 245.739 609.553 244.551Q609.039 243.363 608.602 242.145Q608.165 240.926 607.808 239.682Q607.45 238.437 607.174 237.173Q606.897 235.908 606.703 234.628C604.914 223.043 608.112 211.556 615.068 202.194C622.189 192.607 631.834 187.401 643.516 185.673Z"/>
	<path fill="#66FDFC" d="M569.658 96.7067C573.839 96.1851 578.364 96.3842 582.588 96.3903C610.799 96.4311 638.272 103.237 664.043 114.449Q661.88 119.101 659.634 123.713C621.272 110.323 589.771 102.791 549.063 110.831C535.949 113.421 523.234 117.724 510.846 122.694C445.121 149.067 389.858 201.358 350.912 259.697C280.44 365.261 266.2 486.962 281.922 610.584C284.946 634.365 289.463 657.639 294.135 681.131C299.246 707.67 307.978 732.951 316.738 758.437C313.056 758.864 309.34 759.002 305.639 759.197C298.398 742.84 293.856 724.568 289.53 707.238C279.596 667.446 271.696 626.409 268.037 585.525C264.373 544.593 263.307 503.264 267.519 462.315C276.752 372.553 312.104 284.125 370.214 214.786C386.522 195.326 404.498 178.307 424.217 162.375C466.025 128.598 515.213 101.536 569.658 96.7067Z"/>
	<path fill="#66FDFC" d="M521.216 394.724C528.009 396.628 540.952 404.562 547.712 408.227C559.428 414.578 571.282 420.67 582.952 427.103C574.287 443.56 567.327 461.27 560.019 478.381Q541.523 520.898 523.893 563.781C520.688 571.371 509.246 600.692 505.524 605.352C501.311 610.628 479.54 623.561 473.22 626.907C463.442 632.633 452.602 636.346 441.855 639.763C426.984 608 423.984 571.394 424.457 536.809C433.864 523.898 442.215 510.212 451.377 497.116C475.022 463.318 499.065 429.528 521.216 394.724Z"/>
	<path fill="#66FDFC" d="M562.254 65.707C603.189 62.1044 643.927 72.8108 680.84 89.7744C676.9 93.9572 673.482 98.469 670.096 103.096C629.838 86.5093 585.376 79.1401 542.343 88.4901C529.782 91.2192 516.972 94.7576 504.974 99.3927C433.916 126.843 367.51 187.638 326.67 251.216Q319.241 262.801 312.538 274.821Q305.836 286.841 299.885 299.251Q293.935 311.661 288.759 324.413Q283.583 337.165 279.201 350.211C244.198 451.916 246.977 556.26 266.226 660.782C268.734 674.4 271.961 687.954 274.905 701.489Q278.969 717.834 283.359 734.095C285.841 743.049 288.698 751.89 290.99 760.898C281.262 763.368 271.715 765.878 262.499 769.935C256.635 772.517 250.48 777.608 244.253 778.902C242.531 779.261 240.841 779.221 239.337 778.251C238.981 777.51 238.657 777.186 238.789 776.327C239.547 771.381 246.431 766.45 250.308 763.889C247.35 745.457 242.188 727.265 238.584 708.926C230.816 669.389 225.012 630.204 221.906 590.002C214.132 489.392 226.594 391.125 269.275 299.098Q272.538 291.889 276.055 284.801Q279.572 277.713 283.338 270.755Q287.105 263.796 291.117 256.976Q295.129 250.156 299.38 243.482Q303.632 236.809 308.118 230.291Q312.604 223.773 317.319 217.419Q322.034 211.065 326.972 204.882Q331.91 198.699 337.065 192.696C385.822 135.772 453.097 86.2242 527.494 70.2939C538.965 67.8375 550.572 66.6042 562.254 65.707Z"/>
	<path fill="#66FDFC" d="M194.939 783.036C201.304 783.597 208.064 785.53 214.337 786.865C238.198 791.941 261.423 798.749 284.724 805.932C343.182 823.952 400.914 848.418 455.188 876.594C462.997 880.648 477.38 886.816 482.907 893.615C487.422 899.17 489.78 907.976 492.344 914.642C497.83 928.907 502.663 943.946 509.174 957.755C510.984 961.594 514.184 965.109 516.67 968.56C519.094 971.926 521.136 975.392 523.073 979.057C521.339 983.77 509.617 1006.25 506.07 1007.49C504.475 1008.05 501.317 1007.12 499.741 1006.65C492.936 1004.62 486.243 1001.58 479.56 999.134L437.803 984.012C409.566 973.998 381.684 962.887 353.617 952.4Q277.504 924.4 201.773 895.38L121.137 864.458C111.876 860.855 101.885 857.955 92.8799 853.829C90.1668 852.586 87.742 850.244 86.7447 847.394C84.8116 841.87 92.2169 829.601 94.7095 824.56C95.8335 822.287 97.376 818.655 99.4519 817.171C103.719 814.122 115.792 811.379 121.242 809.429C145.792 800.646 170.266 791.45 194.939 783.036Z"/>
	<path fill="#172A3F" d="M107.06 825.172Q113.087 824.942 119.109 825.277C136.662 826.214 153.743 829.563 170.936 833.002C248.735 848.566 327.637 877.227 399.121 911.455C427.053 924.829 454.623 939.105 480.223 956.6C490.367 963.533 502.211 970.441 510.44 979.581C508.746 983.599 504.569 993.35 501.379 996.224C495.814 994.357 490.358 991.905 484.87 989.796Q470.917 984.534 456.897 979.451L310.059 924.44L193.229 879.895C161.409 867.966 129.093 856.699 97.7032 843.695C100.034 837.664 103.382 830.509 107.06 825.172Z"/>
	<path fill="#66FDFC" d="M123.948 840.455C138.617 839.769 155.882 843.959 170.256 846.885C217.596 856.52 263.579 871.104 308.689 888.289C333.673 897.807 358.753 907.749 382.961 919.122Q420.529 936.955 456.28 958.198C462.306 961.754 486.155 975.673 489.283 980.4C483.125 978.477 477.036 975.838 471.001 973.531Q452.703 966.587 434.519 959.349C411.581 950.267 388.386 941.726 365.341 932.903L123.948 840.455Z"/>
</svg>
